<svg width="45" height="32" viewBox="0 0 45 32" fill="none" xmlns="http://www.w3.org/2000/svg">
<path d="M25.5676 7.39327C26.3494 6.60952 26.8332 5.52801 26.8332 4.33311C26.8332 1.9401 24.8931 0 22.5 0C20.9872 0 19.657 0.77668 18.882 1.95166C18.6761 2.15788 1.42681 23.4181 1.26556 23.6625C0.483742 24.4463 0 25.5281 0 26.7224C0 29.1157 1.9401 31.0558 4.33311 31.0558C5.846 31.0558 7.17613 30.2794 7.95121 29.1041C8.15711 28.8979 25.4064 7.63739 25.5676 7.39327Z" fill="white"/>
<path d="M35.5483 17.4822C36.3324 16.6978 36.8171 15.615 36.8171 14.4185C36.8171 12.0255 34.877 10.0854 32.484 10.0854C30.9704 10.0854 29.6397 10.8627 28.8646 12.0387C28.6571 12.2465 19.5974 23.414 19.4352 23.66C18.6511 24.4444 18.1664 25.5272 18.1664 26.7234C18.1664 29.1167 20.1065 31.0568 22.4995 31.0568C24.013 31.0568 25.3438 30.2795 26.1186 29.1036C26.3261 28.8961 35.3861 17.7283 35.5483 17.4822Z" fill="white"/>
<path d="M45 4.33311C45 6.72644 43.0599 8.66622 40.6668 8.66622C38.2735 8.66622 36.3337 6.72644 36.3337 4.33311C36.3337 1.9401 38.2735 0 40.6668 0C43.0599 0 45 1.9401 45 4.33311Z" fill="white"/>
<path d="M8.66622 4.33311C8.66622 6.72644 6.72612 8.66622 4.33311 8.66622C1.9401 8.66622 0 6.72644 0 4.33311C0 1.9401 1.9401 0 4.33311 0C6.72612 0 8.66622 1.9401 8.66622 4.33311Z" fill="white"/>
</svg>
